<?xml version="1.0" encoding="UTF-8" standalone="no"?>
<!DOCTYPE svg PUBLIC "-//W3C//DTD SVG 1.1//EN" "http://www.w3.org/Graphics/SVG/1.1/DTD/svg11.dtd">
<svg width="100%" height="100%" viewBox="0 0 1080 1372" version="1.1" xmlns="http://www.w3.org/2000/svg" xmlns:xlink="http://www.w3.org/1999/xlink" xml:space="preserve" xmlns:serif="http://www.serif.com/" style="fill-rule:evenodd;clip-rule:evenodd;stroke-linecap:round;stroke-linejoin:round;stroke-miterlimit:1.5;">
    <g id="Michigan" transform="matrix(2.79417,0,0,2.79401,-831.129,999.01)">
        <path d="M476.981,130.921C476.171,129.407 475.478,129.395 386.808,129.395C311.227,129.395 297.452,129.233 297.452,128.342C297.452,127.05 303.155,121.788 304.556,121.788C305.703,121.788 313.855,111.201 315.392,107.715C315.946,106.459 318.169,101.325 320.333,96.304C323.667,88.569 324.99,86.421 328.998,82.231C331.855,79.246 334.12,76.081 334.714,74.244C335.255,72.57 337.567,67.687 339.85,63.393C342.133,59.098 344.659,53.45 345.463,50.841C348.442,41.171 352.988,-0.081 352.976,-17.353C352.976,-27.666 352.831,-28.748 351.016,-32.636C349.942,-34.937 347.932,-39.745 346.549,-43.319C345.166,-46.894 342.985,-51.898 341.702,-54.439C340.42,-56.98 338.481,-62.271 337.394,-66.196C336.307,-70.122 334.247,-76.262 332.815,-79.842C330.133,-86.55 327.911,-94.75 327.891,-98.01C327.891,-99.03 329.789,-103.928 332.121,-108.894C336.657,-118.55 338.291,-125.396 337.431,-131.131C337.162,-132.909 335.425,-136.892 333.567,-139.982C331.708,-143.072 330.182,-146.278 330.175,-147.107C330.175,-148.008 332.741,-151.112 336.577,-154.83C343.817,-161.844 346.443,-166.303 347.181,-172.835C347.507,-175.703 348.742,-179.359 350.712,-183.278C353.292,-188.409 353.742,-190.018 353.733,-194.079C353.733,-196.942 354.384,-200.885 355.379,-203.94L357.035,-209.03L355.009,-213.544C352.223,-219.752 352.318,-222.43 355.392,-224.299C356.717,-225.105 359.198,-225.995 360.907,-226.278C367.561,-227.38 369.173,-229.912 368.48,-238.168C367.891,-245.164 369.266,-249.138 372.521,-249.854C376.307,-250.686 376.625,-250.901 377.415,-253.169C378.32,-255.764 379.895,-256.591 381.895,-255.52C382.674,-255.103 384.651,-254.762 386.287,-254.762C389.878,-254.762 391.78,-256.551 391.78,-259.93C391.78,-262.835 395.435,-267.294 399.057,-268.807C402.199,-270.12 403.751,-272.485 404.255,-276.729C404.858,-281.808 408.236,-284.685 411.529,-282.923C413.506,-281.865 413.53,-278.988 411.579,-277.22C409.395,-275.244 409.192,-273.908 410.333,-269.035C411.316,-264.837 411.286,-264.577 409.555,-262.231C407.434,-259.355 407.36,-258.488 408.951,-255.135C410.038,-252.844 410.038,-252.405 408.951,-250.303C407.402,-247.306 407.369,-240.816 408.898,-239.548C409.858,-238.752 410.208,-239.01 411.098,-241.166C411.68,-242.577 412.748,-246.47 413.471,-249.817C414.194,-253.164 415.087,-256.228 415.455,-256.626C417.798,-259.153 418.602,-248.653 416.586,-241.864C415.215,-237.246 415.037,-234.984 416.045,-234.984C417.578,-234.984 423.898,-245.647 425.668,-251.221C427.352,-256.524 427.536,-258.394 427.536,-270.246C427.536,-289.775 428.823,-294.906 434.527,-298.112C436.146,-299.022 438.041,-300.68 438.739,-301.797C439.437,-302.914 440.139,-303.999 440.298,-304.208C440.461,-304.417 444.242,-304.778 448.706,-305.009C457.187,-305.45 462.909,-307.254 462.909,-309.488C462.909,-310.085 461.197,-311.451 459.105,-312.525C456.188,-314.022 454.818,-315.364 453.227,-318.281C452.087,-320.373 451.145,-323.013 451.135,-324.148C451.091,-328.234 454.3,-334.894 458.366,-339.197C464.276,-345.453 465.255,-348.018 462.774,-350.759C460.58,-353.184 462.369,-353.747 469.193,-352.782C474.661,-352.008 475.603,-352.054 477.14,-353.164C478.099,-353.858 479.64,-354.966 480.564,-355.628C482.823,-357.244 486.403,-356.426 487.488,-354.044C488.311,-352.239 495.057,-347.381 499.423,-345.451C500.677,-344.896 502.641,-343.418 503.785,-342.167C505.745,-340.024 506.163,-339.903 511.012,-340.074C513.842,-340.174 518.674,-339.722 521.749,-339.07C528.854,-337.564 532.748,-334.109 534.4,-327.845C534.988,-325.619 536.244,-322.972 537.191,-321.963C538.83,-320.218 539.221,-320.153 545.166,-320.636L551.417,-321.143L557.019,-315.338C562.388,-309.774 562.765,-309.533 566.087,-309.533C568.632,-309.533 569.933,-309.112 570.986,-307.948C571.774,-307.077 573.511,-305.908 574.846,-305.35C576.181,-304.793 577.655,-303.623 578.121,-302.751C578.842,-301.403 579.684,-301.165 583.727,-301.165C588.424,-301.165 588.519,-301.12 591.307,-297.787C593.714,-294.907 594.13,-293.863 594.13,-290.712C594.13,-288.679 594.452,-286.69 594.84,-286.293C596.782,-284.315 603.259,-270.183 603.259,-267.926C603.259,-265.059 602.514,-264.847 598.432,-266.553C594.814,-268.064 594.381,-268.013 592.194,-265.826C590.541,-264.173 590.327,-263.3 590.327,-258.21L590.327,-252.46L594.404,-250.657C601.067,-247.711 602.319,-245.388 603.322,-234.125C604.098,-225.417 604.01,-223.48 602.257,-210.602C601.205,-202.883 600.135,-194.253 599.878,-191.424C599.284,-184.882 598.742,-183.521 595.014,-179.213C593.337,-177.275 591.744,-174.995 591.475,-174.147C591.144,-173.108 590.32,-172.602 588.944,-172.595C584.662,-172.57 583.444,-171.73 581.159,-167.203C579.236,-163.393 578.916,-161.897 578.916,-156.707C578.916,-149.137 578.289,-148.324 571.69,-147.333C570.595,-147.169 570.061,-146.359 569.786,-144.451C569.461,-142.169 569.138,-141.82 567.504,-141.964C559.889,-142.634 554.47,-140.243 552.06,-135.149C550.594,-132.049 548.724,-122.32 548.134,-114.727L547.687,-108.956L550.763,-105.092C554.228,-100.741 558.882,-97.728 563.161,-97.066C564.746,-96.822 567.083,-95.746 568.354,-94.676C569.625,-93.606 571.035,-92.731 571.486,-92.731C573.151,-92.731 577.245,-96.553 578.675,-99.442C581.114,-104.373 585.255,-108.706 587.528,-108.706C589.75,-108.706 590.78,-110.252 592.915,-116.786C593.615,-118.928 595.404,-122.694 596.889,-125.153C598.375,-127.613 599.682,-130.652 599.795,-131.908C599.905,-133.163 600.046,-134.405 600.108,-134.668C600.169,-134.931 601.231,-135.566 602.471,-136.08C603.711,-136.594 605.38,-138.124 606.181,-139.48C607.47,-141.665 608.128,-142.003 611.963,-142.454C616.754,-143.017 622.055,-145.43 628.296,-149.887C633.629,-153.695 636.401,-153.678 640.914,-149.812C641.751,-149.095 643.634,-148.056 645.098,-147.502C648.594,-146.18 650.993,-143.979 652.818,-140.42C655.965,-134.281 661.928,-117.21 662.7,-112.129C664.285,-101.686 666.54,-90.95 669.144,-81.452C671.854,-71.563 673.096,-64.834 675.108,-49.131C676.25,-40.22 676.836,-38.459 681.614,-29.593C684.591,-24.068 684.703,-18.612 681.962,-12.625C680.39,-9.192 680.015,-7.155 679.95,-1.693C679.906,1.999 680.122,6.262 680.433,7.78C680.985,10.487 679.421,19.98 677.664,24.596C676.931,26.521 673.563,28.203 670.411,28.217C668.969,28.22 667.066,23.91 667.589,21.824C668.484,18.26 663.437,17.291 656.903,19.772C651.588,21.791 650.918,23.2 654.043,25.788C655.406,26.917 656.519,28.093 656.515,28.401C656.512,28.709 655.337,29.451 653.905,30.049C649.599,31.848 648.562,34.263 648.512,42.615C648.467,48.57 648.164,50.475 646.813,53.044C645.097,56.304 644.494,56.612 637.983,57.552C635.109,57.967 633.302,58.908 629.827,61.8C627.371,63.844 625.029,66.138 624.621,66.9C624.216,67.661 623.361,73.23 622.726,79.274C621.042,95.31 620.384,97.831 617.267,100.209C615.638,101.451 614.669,102.843 614.669,103.94C614.669,106.794 613.851,108.095 612.056,108.095C609.635,108.095 603.259,112.516 603.259,114.194C603.259,114.959 602.442,116.556 601.443,117.743C600.445,118.93 599.269,121.2 598.831,122.788C598.39,124.375 597.178,126.347 596.133,127.17C595.087,127.992 594.123,129.428 593.991,130.361L593.749,132.058L535.774,132.253C478.417,132.446 477.791,132.431 476.983,130.922L476.981,130.921Z" style="fill:rgb(238,238,238);fill-rule:nonzero;"/>
    </g>
    <g id="Kalamazoo">
        <g transform="matrix(0.807294,0,0,0.807294,85.4369,417.031)">
            <circle cx="298.139" cy="924.746" r="15.484" style="fill:rgb(247,74,74);"/>
        </g>
        <g transform="matrix(1.61459,0,0,1.61459,-155.249,-329.511)">
            <circle cx="298.139" cy="924.746" r="15.484" style="fill:none;stroke:rgb(247,74,74);stroke-width:3.1px;"/>
        </g>
    </g>
    <g id="Lansing">
        <g transform="matrix(3.22918,0,0,3.22918,-388.357,-1974.93)">
            <circle cx="298.139" cy="924.746" r="15.484" style="fill:none;stroke:rgb(247,74,74);stroke-width:0.93px;"/>
        </g>
        <g transform="matrix(2.42188,0,0,2.42188,-147.671,-1228.39)">
            <circle cx="298.139" cy="924.746" r="15.484" style="fill:none;stroke:rgb(247,74,74);stroke-width:1.65px;"/>
        </g>
        <g transform="matrix(1.61459,0,0,1.61459,93.0152,-481.849)">
            <circle cx="298.139" cy="924.746" r="15.484" style="fill:none;stroke:rgb(247,74,74);stroke-width:3.1px;"/>
        </g>
        <g transform="matrix(0.968753,0,0,0.968753,285.564,115.384)">
            <circle cx="298.139" cy="924.746" r="15.484" style="fill:rgb(247,74,74);"/>
        </g>
    </g>
    <g id="Detroit" transform="matrix(1,0,0,1,278.05,123.87)">
        <g transform="matrix(2.42188,0,0,2.42188,-147.671,-1228.39)">
            <circle cx="298.139" cy="924.746" r="15.484" style="fill:none;stroke:rgb(247,74,74);stroke-width:1.65px;"/>
        </g>
        <g transform="matrix(1.61459,0,0,1.61459,93.0152,-481.849)">
            <circle cx="298.139" cy="924.746" r="15.484" style="fill:none;stroke:rgb(247,74,74);stroke-width:3.1px;"/>
        </g>
        <g transform="matrix(0.968753,0,0,0.968753,285.564,115.384)">
            <circle cx="298.139" cy="924.746" r="15.484" style="fill:rgb(247,74,74);"/>
        </g>
    </g>
    <g id="Grand-Rapids" serif:id="Grand Rapids" transform="matrix(1,0,0,1,-276.732,-86.973)">
        <g transform="matrix(4.84377,0,0,4.84377,-869.728,-3468.02)">
            <circle cx="298.139" cy="924.746" r="15.484" style="fill:none;stroke:rgb(247,74,74);stroke-width:0.21px;"/>
        </g>
        <g transform="matrix(4.03647,0,0,4.03647,-629.043,-2721.48)">
            <circle cx="298.139" cy="924.746" r="15.484" style="fill:none;stroke:rgb(247,74,74);stroke-width:0.5px;"/>
        </g>
        <g transform="matrix(3.22918,0,0,3.22918,-388.357,-1974.93)">
            <circle cx="298.139" cy="924.746" r="15.484" style="fill:none;stroke:rgb(247,74,74);stroke-width:0.93px;"/>
        </g>
        <g transform="matrix(2.42188,0,0,2.42188,-147.671,-1228.39)">
            <circle cx="298.139" cy="924.746" r="15.484" style="fill:none;stroke:rgb(247,74,74);stroke-width:1.65px;"/>
        </g>
        <g transform="matrix(1.61459,0,0,1.61459,93.0152,-481.849)">
            <circle cx="298.139" cy="924.746" r="15.484" style="fill:none;stroke:rgb(247,74,74);stroke-width:3.1px;"/>
        </g>
        <g transform="matrix(0.968753,0,0,0.968753,285.564,115.384)">
            <circle cx="298.139" cy="924.746" r="15.484" style="fill:rgb(247,74,74);"/>
        </g>
    </g>
    <g id="Traverse-City" serif:id="Traverse City">
        <g transform="matrix(1.61459,0,0,1.61459,-170.733,-1143.24)">
            <circle cx="298.139" cy="924.746" r="15.484" style="fill:none;stroke:rgb(247,74,74);stroke-width:3.1px;"/>
        </g>
        <g transform="matrix(0.807294,0,0,0.807294,69.9531,-396.693)">
            <circle cx="298.139" cy="924.746" r="15.484" style="fill:rgb(247,74,74);"/>
        </g>
    </g>
</svg>
