<?xml version="1.0" encoding="UTF-8" standalone="no"?>
<!DOCTYPE svg PUBLIC "-//W3C//DTD SVG 1.1//EN" "http://www.w3.org/Graphics/SVG/1.1/DTD/svg11.dtd">
<svg width="100%" height="100%" viewBox="0 0 800 300" version="1.1" xmlns="http://www.w3.org/2000/svg" xmlns:xlink="http://www.w3.org/1999/xlink" xml:space="preserve" xmlns:serif="http://www.serif.com/" style="fill-rule:evenodd;clip-rule:evenodd;stroke-linejoin:round;stroke-miterlimit:2;">
    <g transform="matrix(1,0,0,1,25,-225)">
        <g id="MWM">
            <g id="White-Front" serif:id="White Front" transform="matrix(1,0,0,1,-585,-165)">
                <g transform="matrix(0.501392,0,0,1,484.925,157.56)">
                    <path d="M544.615,382.44L611.936,517.082L477.294,517.082L544.615,382.44Z" style="fill:url(#_Linear1);"/>
                </g>
                <g transform="matrix(0.501392,0,0,1,383.663,22.9178)">
                    <path d="M544.615,382.44L611.936,517.082L477.294,517.082L544.615,382.44Z" style="fill:url(#_Linear2);"/>
                </g>
                <g transform="matrix(0.501392,0,0,1,349.908,157.56)">
                    <path d="M544.615,382.44L611.936,517.082L477.294,517.082L544.615,382.44Z" style="fill:url(#_Linear3);"/>
                </g>
                <g transform="matrix(0.501392,0,0,1,518.679,22.9178)">
                    <path d="M544.615,382.44L611.936,517.082L477.294,517.082L544.615,382.44Z" style="fill:url(#_Linear4);"/>
                </g>
                <g transform="matrix(0.501392,0,0,1,888.943,157.56)">
                    <path d="M544.615,382.44L611.936,517.082L477.294,517.082L544.615,382.44Z" style="fill:url(#_Linear5);"/>
                </g>
                <g transform="matrix(0.501392,0,0,1,922.697,22.9178)">
                    <path d="M544.615,382.44L611.936,517.082L477.294,517.082L544.615,382.44Z" style="fill:url(#_Linear6);"/>
                </g>
                <g transform="matrix(-0.501392,-1.22465e-16,6.14028e-17,-1,1468.83,1057.08)">
                    <path d="M544.615,382.44L611.936,517.082L477.294,517.082L544.615,382.44Z" style="fill:url(#_Linear7);"/>
                </g>
                <g transform="matrix(-0.501392,-1.22465e-16,6.14028e-17,-1,1502.58,922.44)">
                    <path d="M544.615,382.44L611.936,517.082L477.294,517.082L544.615,382.44Z" style="fill:url(#_Linear8);"/>
                </g>
                <g transform="matrix(-0.501392,1.22465e-16,-6.14028e-17,-1,1064.81,1057.08)">
                    <path d="M544.615,382.44L611.936,517.082L477.294,517.082L544.615,382.44Z" style="fill:url(#_Linear9);"/>
                </g>
                <g transform="matrix(-0.501392,1.22465e-16,-6.14028e-17,-1,929.794,1057.08)">
                    <path d="M544.615,382.44L611.936,517.082L477.294,517.082L544.615,382.44Z" style="fill:url(#_Linear10);"/>
                </g>
                <g transform="matrix(-0.501392,1.22465e-16,-6.14028e-17,-1,963.548,922.44)">
                    <path d="M544.615,382.44L611.936,517.082L477.294,517.082L544.615,382.44Z" style="fill:url(#_Linear11);"/>
                </g>
                <g transform="matrix(0.501392,0,0,1,1023.96,157.56)">
                    <path d="M544.615,382.44L611.936,517.082L477.294,517.082L544.615,382.44Z" style="fill:url(#_Linear12);"/>
                </g>
            </g>
            <g id="White-Back" serif:id="White Back" transform="matrix(1,0,0,1,-585,-165)">
                <g transform="matrix(0.501392,0,0,1,451.171,22.9178)">
                    <path d="M544.615,382.44L611.936,517.082L477.294,517.082L544.615,382.44Z" style="fill:url(#_Linear13);"/>
                </g>
                <g transform="matrix(0.501392,0,0,1,855.189,22.9178)">
                    <path d="M544.615,382.44L611.936,517.082L477.294,517.082L544.615,382.44Z" style="fill:url(#_Linear14);"/>
                </g>
                <g transform="matrix(0.501392,0,0,1,990.206,22.9178)">
                    <path d="M544.615,382.44L611.936,517.082L477.294,517.082L544.615,382.44Z" style="fill:url(#_Linear15);"/>
                </g>
                <g transform="matrix(-0.501392,-1.22465e-16,6.14028e-17,-1,1401.32,1057.08)">
                    <path d="M544.615,382.44L611.936,517.082L477.294,517.082L544.615,382.44Z" style="fill:url(#_Linear16);"/>
                </g>
                <g transform="matrix(-0.501392,-1.22465e-16,6.14028e-17,-1,1536.34,1057.08)">
                    <path d="M544.615,382.44L611.936,517.082L477.294,517.082L544.615,382.44Z" style="fill:url(#_Linear17);"/>
                </g>
                <g transform="matrix(-0.501392,1.22465e-16,-6.14028e-17,-1,997.303,1057.08)">
                    <path d="M544.615,382.44L611.936,517.082L477.294,517.082L544.615,382.44Z" style="fill:url(#_Linear18);"/>
                </g>
            </g>
            <g id="Red-Back" serif:id="Red Back" transform="matrix(1,0,0,1,-585,-165)">
                <g transform="matrix(0.501392,0,0,1,720.172,22.9178)">
                    <path d="M544.615,382.44L611.936,517.082L477.294,517.082L544.615,382.44Z" style="fill:url(#_Linear19);"/>
                </g>
                <g transform="matrix(0.501392,0,0,1,586.188,22.9178)">
                    <path d="M544.615,382.44L611.936,517.082L477.294,517.082L544.615,382.44Z" style="fill:url(#_Linear20);"/>
                </g>
                <g transform="matrix(-0.501392,1.22465e-16,-6.14028e-17,-1,1266.3,1057.08)">
                    <path d="M544.615,382.44L611.936,517.082L477.294,517.082L544.615,382.44Z" style="fill:url(#_Linear21);"/>
                </g>
                <g transform="matrix(-0.501392,1.22465e-16,-6.14028e-17,-1,1132.32,1057.08)">
                    <path d="M544.615,382.44L611.936,517.082L477.294,517.082L544.615,382.44Z" style="fill:url(#_Linear22);"/>
                </g>
            </g>
            <g id="Red-Front" serif:id="Red Front" transform="matrix(1,0,0,1,-585,-165)">
                <g transform="matrix(0.501392,0,0,1,619.942,157.56)">
                    <path d="M544.615,382.44L611.936,517.082L477.294,517.082L544.615,382.44Z" style="fill:url(#_Linear23);"/>
                </g>
                <g transform="matrix(0.501392,0,0,1,652.664,22.9178)">
                    <path d="M544.615,382.44L611.936,517.082L477.294,517.082L544.615,382.44Z" style="fill:url(#_Linear24);"/>
                </g>
                <g transform="matrix(0.501392,0,0,1,753.926,157.56)">
                    <path d="M544.615,382.44L611.936,517.082L477.294,517.082L544.615,382.44Z" style="fill:url(#_Linear25);"/>
                </g>
                <g transform="matrix(0.501392,0,0,1,787.681,22.9178)">
                    <path d="M544.615,382.44L611.936,517.082L477.294,517.082L544.615,382.44Z" style="fill:url(#_Linear26);"/>
                </g>
                <g transform="matrix(-0.501392,1.22465e-16,-6.14028e-17,-1,1232.55,922.44)">
                    <path d="M544.615,382.44L611.936,517.082L477.294,517.082L544.615,382.44Z" style="fill:url(#_Linear27);"/>
                </g>
                <g transform="matrix(-0.501392,1.22465e-16,-6.14028e-17,-1,1098.57,922.44)">
                    <path d="M544.615,382.44L611.936,517.082L477.294,517.082L544.615,382.44Z" style="fill:url(#_Linear28);"/>
                </g>
                <g transform="matrix(-0.501392,1.22465e-16,-6.14028e-17,-1,1333.81,1057.08)">
                    <path d="M544.615,382.44L611.936,517.082L477.294,517.082L544.615,382.44Z" style="fill:url(#_Linear29);"/>
                </g>
                <g transform="matrix(-0.501392,1.22465e-16,-6.14028e-17,-1,1367.57,922.44)">
                    <path d="M544.615,382.44L611.936,517.082L477.294,517.082L544.615,382.44Z" style="fill:url(#_Linear30);"/>
                </g>
                <g transform="matrix(-0.501392,1.22465e-16,-6.14028e-17,-1,1198.8,1057.08)">
                    <path d="M544.615,382.44L611.936,517.082L477.294,517.082L544.615,382.44Z" style="fill:url(#_Linear31);"/>
                </g>
            </g>
        </g>
    </g>
    <defs>
        <linearGradient id="_Linear1" x1="0" y1="0" x2="1" y2="0" gradientUnits="userSpaceOnUse" gradientTransform="matrix(3.28862e-14,-269.284,537.072,1.64889e-14,947.512,517.082)"><stop offset="0" style="stop-color:rgb(223,223,223);stop-opacity:1"/><stop offset="0.5" style="stop-color:rgb(238,238,238);stop-opacity:1"/><stop offset="1" style="stop-color:white;stop-opacity:1"/></linearGradient>
        <linearGradient id="_Linear2" x1="0" y1="0" x2="1" y2="0" gradientUnits="userSpaceOnUse" gradientTransform="matrix(3.28862e-14,-269.284,537.072,1.64889e-14,1149.47,651.724)"><stop offset="0" style="stop-color:rgb(223,223,223);stop-opacity:1"/><stop offset="0.5" style="stop-color:rgb(238,238,238);stop-opacity:1"/><stop offset="1" style="stop-color:white;stop-opacity:1"/></linearGradient>
        <linearGradient id="_Linear3" x1="0" y1="0" x2="1" y2="0" gradientUnits="userSpaceOnUse" gradientTransform="matrix(3.28862e-14,-269.284,537.072,1.64889e-14,1216.8,517.082)"><stop offset="0" style="stop-color:rgb(223,223,223);stop-opacity:1"/><stop offset="0.5" style="stop-color:rgb(238,238,238);stop-opacity:1"/><stop offset="1" style="stop-color:white;stop-opacity:1"/></linearGradient>
        <linearGradient id="_Linear4" x1="0" y1="0" x2="1" y2="0" gradientUnits="userSpaceOnUse" gradientTransform="matrix(3.28862e-14,-269.284,537.072,1.64889e-14,880.191,651.724)"><stop offset="0" style="stop-color:rgb(223,223,223);stop-opacity:1"/><stop offset="0.5" style="stop-color:rgb(238,238,238);stop-opacity:1"/><stop offset="1" style="stop-color:white;stop-opacity:1"/></linearGradient>
        <linearGradient id="_Linear5" x1="0" y1="0" x2="1" y2="0" gradientUnits="userSpaceOnUse" gradientTransform="matrix(3.28862e-14,-269.284,537.072,1.64889e-14,141.719,517.082)"><stop offset="0" style="stop-color:rgb(223,223,223);stop-opacity:1"/><stop offset="0.5" style="stop-color:rgb(238,238,238);stop-opacity:1"/><stop offset="1" style="stop-color:white;stop-opacity:1"/></linearGradient>
        <linearGradient id="_Linear6" x1="0" y1="0" x2="1" y2="0" gradientUnits="userSpaceOnUse" gradientTransform="matrix(3.28862e-14,-269.284,537.072,1.64889e-14,74.3981,651.724)"><stop offset="0" style="stop-color:rgb(223,223,223);stop-opacity:1"/><stop offset="0.5" style="stop-color:rgb(238,238,238);stop-opacity:1"/><stop offset="1" style="stop-color:white;stop-opacity:1"/></linearGradient>
        <linearGradient id="_Linear7" x1="0" y1="0" x2="1" y2="0" gradientUnits="userSpaceOnUse" gradientTransform="matrix(9.1555e-17,269.284,-537.072,4.92835e-14,1014.83,382.44)"><stop offset="0" style="stop-color:rgb(223,223,223);stop-opacity:1"/><stop offset="0.5" style="stop-color:rgb(238,238,238);stop-opacity:1"/><stop offset="1" style="stop-color:white;stop-opacity:1"/></linearGradient>
        <linearGradient id="_Linear8" x1="0" y1="0" x2="1" y2="0" gradientUnits="userSpaceOnUse" gradientTransform="matrix(9.1555e-17,269.284,-537.072,4.92835e-14,1082.15,247.798)"><stop offset="0" style="stop-color:rgb(223,223,223);stop-opacity:1"/><stop offset="0.5" style="stop-color:rgb(238,238,238);stop-opacity:1"/><stop offset="1" style="stop-color:white;stop-opacity:1"/></linearGradient>
        <linearGradient id="_Linear9" x1="0" y1="0" x2="1" y2="0" gradientUnits="userSpaceOnUse" gradientTransform="matrix(-6.5864e-14,269.284,-537.072,-8.22613e-14,209.04,382.44)"><stop offset="0" style="stop-color:rgb(223,223,223);stop-opacity:1"/><stop offset="0.5" style="stop-color:rgb(238,238,238);stop-opacity:1"/><stop offset="1" style="stop-color:white;stop-opacity:1"/></linearGradient>
        <linearGradient id="_Linear10" x1="0" y1="0" x2="1" y2="0" gradientUnits="userSpaceOnUse" gradientTransform="matrix(-6.5864e-14,269.284,-537.072,-8.22613e-14,-60.2438,382.44)"><stop offset="0" style="stop-color:rgb(223,223,223);stop-opacity:1"/><stop offset="0.5" style="stop-color:rgb(238,238,238);stop-opacity:1"/><stop offset="1" style="stop-color:white;stop-opacity:1"/></linearGradient>
        <linearGradient id="_Linear11" x1="0" y1="0" x2="1" y2="0" gradientUnits="userSpaceOnUse" gradientTransform="matrix(-6.5864e-14,269.284,-537.072,-8.22613e-14,7.07713,247.798)"><stop offset="0" style="stop-color:rgb(223,223,223);stop-opacity:1"/><stop offset="0.5" style="stop-color:rgb(238,238,238);stop-opacity:1"/><stop offset="1" style="stop-color:white;stop-opacity:1"/></linearGradient>
        <linearGradient id="_Linear12" x1="0" y1="0" x2="1" y2="0" gradientUnits="userSpaceOnUse" gradientTransform="matrix(3.28862e-14,-269.284,537.072,1.64889e-14,-127.565,517.082)"><stop offset="0" style="stop-color:rgb(223,223,223);stop-opacity:1"/><stop offset="0.5" style="stop-color:rgb(238,238,238);stop-opacity:1"/><stop offset="1" style="stop-color:white;stop-opacity:1"/></linearGradient>
        <linearGradient id="_Linear13" x1="0" y1="0" x2="1" y2="0" gradientUnits="userSpaceOnUse" gradientTransform="matrix(3.28862e-14,269.284,-537.072,1.64889e-14,1014.83,382.44)"><stop offset="0" style="stop-color:rgb(120,120,120);stop-opacity:1"/><stop offset="0.18" style="stop-color:rgb(189,189,189);stop-opacity:1"/><stop offset="0.5" style="stop-color:rgb(201,201,201);stop-opacity:1"/><stop offset="0.79" style="stop-color:rgb(184,184,184);stop-opacity:1"/><stop offset="0.9" style="stop-color:rgb(148,148,148);stop-opacity:1"/><stop offset="1" style="stop-color:rgb(113,113,113);stop-opacity:1"/></linearGradient>
        <linearGradient id="_Linear14" x1="0" y1="0" x2="1" y2="0" gradientUnits="userSpaceOnUse" gradientTransform="matrix(3.28862e-14,269.284,-537.072,1.64889e-14,209.04,382.44)"><stop offset="0" style="stop-color:rgb(120,120,120);stop-opacity:1"/><stop offset="0.18" style="stop-color:rgb(189,189,189);stop-opacity:1"/><stop offset="0.5" style="stop-color:rgb(201,201,201);stop-opacity:1"/><stop offset="0.79" style="stop-color:rgb(184,184,184);stop-opacity:1"/><stop offset="0.9" style="stop-color:rgb(148,148,148);stop-opacity:1"/><stop offset="1" style="stop-color:rgb(113,113,113);stop-opacity:1"/></linearGradient>
        <linearGradient id="_Linear15" x1="0" y1="0" x2="1" y2="0" gradientUnits="userSpaceOnUse" gradientTransform="matrix(3.28862e-14,269.284,-537.072,1.64889e-14,-60.2438,382.44)"><stop offset="0" style="stop-color:rgb(120,120,120);stop-opacity:1"/><stop offset="0.18" style="stop-color:rgb(189,189,189);stop-opacity:1"/><stop offset="0.5" style="stop-color:rgb(201,201,201);stop-opacity:1"/><stop offset="0.79" style="stop-color:rgb(184,184,184);stop-opacity:1"/><stop offset="0.9" style="stop-color:rgb(148,148,148);stop-opacity:1"/><stop offset="1" style="stop-color:rgb(113,113,113);stop-opacity:1"/></linearGradient>
        <linearGradient id="_Linear16" x1="0" y1="0" x2="1" y2="0" gradientUnits="userSpaceOnUse" gradientTransform="matrix(-6.5864e-14,-269.284,537.072,-8.22613e-14,880.191,651.724)"><stop offset="0" style="stop-color:rgb(120,120,120);stop-opacity:1"/><stop offset="0.18" style="stop-color:rgb(189,189,189);stop-opacity:1"/><stop offset="0.5" style="stop-color:rgb(201,201,201);stop-opacity:1"/><stop offset="0.79" style="stop-color:rgb(184,184,184);stop-opacity:1"/><stop offset="0.9" style="stop-color:rgb(148,148,148);stop-opacity:1"/><stop offset="1" style="stop-color:rgb(113,113,113);stop-opacity:1"/></linearGradient>
        <linearGradient id="_Linear17" x1="0" y1="0" x2="1" y2="0" gradientUnits="userSpaceOnUse" gradientTransform="matrix(-6.5864e-14,-269.284,537.072,-8.22613e-14,1149.47,651.724)"><stop offset="0" style="stop-color:rgb(120,120,120);stop-opacity:1"/><stop offset="0.18" style="stop-color:rgb(189,189,189);stop-opacity:1"/><stop offset="0.5" style="stop-color:rgb(201,201,201);stop-opacity:1"/><stop offset="0.79" style="stop-color:rgb(184,184,184);stop-opacity:1"/><stop offset="0.9" style="stop-color:rgb(148,148,148);stop-opacity:1"/><stop offset="1" style="stop-color:rgb(113,113,113);stop-opacity:1"/></linearGradient>
        <linearGradient id="_Linear18" x1="0" y1="0" x2="1" y2="0" gradientUnits="userSpaceOnUse" gradientTransform="matrix(9.1555e-17,-269.284,537.072,4.92835e-14,74.3981,651.724)"><stop offset="0" style="stop-color:rgb(120,120,120);stop-opacity:1"/><stop offset="0.18" style="stop-color:rgb(189,189,189);stop-opacity:1"/><stop offset="0.5" style="stop-color:rgb(201,201,201);stop-opacity:1"/><stop offset="0.79" style="stop-color:rgb(184,184,184);stop-opacity:1"/><stop offset="0.9" style="stop-color:rgb(148,148,148);stop-opacity:1"/><stop offset="1" style="stop-color:rgb(113,113,113);stop-opacity:1"/></linearGradient>
        <linearGradient id="_Linear19" x1="0" y1="0" x2="1" y2="0" gradientUnits="userSpaceOnUse" gradientTransform="matrix(3.28862e-14,-269.284,537.072,1.64889e-14,478.324,651.724)"><stop offset="0" style="stop-color:rgb(146,10,10);stop-opacity:1"/><stop offset="0.18" style="stop-color:rgb(214,47,47);stop-opacity:1"/><stop offset="0.5" style="stop-color:rgb(226,53,53);stop-opacity:1"/><stop offset="0.76" style="stop-color:rgb(207,43,43);stop-opacity:1"/><stop offset="1" style="stop-color:rgb(146,10,10);stop-opacity:1"/></linearGradient>
        <linearGradient id="_Linear20" x1="0" y1="0" x2="1" y2="0" gradientUnits="userSpaceOnUse" gradientTransform="matrix(3.28862e-14,-269.284,537.072,1.64889e-14,745.549,651.724)"><stop offset="0" style="stop-color:rgb(146,10,10);stop-opacity:1"/><stop offset="0.18" style="stop-color:rgb(214,47,47);stop-opacity:1"/><stop offset="0.5" style="stop-color:rgb(226,53,53);stop-opacity:1"/><stop offset="0.76" style="stop-color:rgb(207,43,43);stop-opacity:1"/><stop offset="1" style="stop-color:rgb(146,10,10);stop-opacity:1"/></linearGradient>
        <linearGradient id="_Linear21" x1="0" y1="0" x2="1" y2="0" gradientUnits="userSpaceOnUse" gradientTransform="matrix(-6.5864e-14,269.284,-537.072,-8.22613e-14,610.907,382.44)"><stop offset="0" style="stop-color:rgb(146,10,10);stop-opacity:1"/><stop offset="0.18" style="stop-color:rgb(214,47,47);stop-opacity:1"/><stop offset="0.5" style="stop-color:rgb(226,53,53);stop-opacity:1"/><stop offset="0.76" style="stop-color:rgb(207,43,43);stop-opacity:1"/><stop offset="1" style="stop-color:rgb(146,10,10);stop-opacity:1"/></linearGradient>
        <linearGradient id="_Linear22" x1="0" y1="0" x2="1" y2="0" gradientUnits="userSpaceOnUse" gradientTransform="matrix(-6.5864e-14,269.284,-537.072,-8.22613e-14,343.682,382.44)"><stop offset="0" style="stop-color:rgb(146,10,10);stop-opacity:1"/><stop offset="0.18" style="stop-color:rgb(214,47,47);stop-opacity:1"/><stop offset="0.5" style="stop-color:rgb(226,53,53);stop-opacity:1"/><stop offset="0.76" style="stop-color:rgb(207,43,43);stop-opacity:1"/><stop offset="1" style="stop-color:rgb(146,10,10);stop-opacity:1"/></linearGradient>
        <linearGradient id="_Linear23" x1="0" y1="0" x2="1" y2="0" gradientUnits="userSpaceOnUse" gradientTransform="matrix(1.02938,-269.284,537.072,0.516125,677.199,517.082)"><stop offset="0" style="stop-color:rgb(209,56,56);stop-opacity:1"/><stop offset="0.18" style="stop-color:rgb(248,66,66);stop-opacity:1"/><stop offset="0.5" style="stop-color:rgb(255,68,68);stop-opacity:1"/><stop offset="0.82" style="stop-color:rgb(255,85,85);stop-opacity:1"/><stop offset="0.91" style="stop-color:rgb(255,129,129);stop-opacity:1"/><stop offset="1" style="stop-color:rgb(255,179,179);stop-opacity:1"/></linearGradient>
        <linearGradient id="_Linear24" x1="0" y1="0" x2="1" y2="0" gradientUnits="userSpaceOnUse" gradientTransform="matrix(1.02938,-269.284,537.072,0.516125,611.936,651.724)"><stop offset="0" style="stop-color:rgb(209,56,56);stop-opacity:1"/><stop offset="0.18" style="stop-color:rgb(248,66,66);stop-opacity:1"/><stop offset="0.5" style="stop-color:rgb(255,68,68);stop-opacity:1"/><stop offset="0.82" style="stop-color:rgb(255,85,85);stop-opacity:1"/><stop offset="0.91" style="stop-color:rgb(255,129,129);stop-opacity:1"/><stop offset="1" style="stop-color:rgb(255,179,179);stop-opacity:1"/></linearGradient>
        <linearGradient id="_Linear25" x1="0" y1="0" x2="1" y2="0" gradientUnits="userSpaceOnUse" gradientTransform="matrix(1.02938,-269.284,537.072,0.516125,409.973,517.082)"><stop offset="0" style="stop-color:rgb(209,56,56);stop-opacity:1"/><stop offset="0.18" style="stop-color:rgb(248,66,66);stop-opacity:1"/><stop offset="0.5" style="stop-color:rgb(255,68,68);stop-opacity:1"/><stop offset="0.82" style="stop-color:rgb(255,85,85);stop-opacity:1"/><stop offset="0.91" style="stop-color:rgb(255,129,129);stop-opacity:1"/><stop offset="1" style="stop-color:rgb(255,179,179);stop-opacity:1"/></linearGradient>
        <linearGradient id="_Linear26" x1="0" y1="0" x2="1" y2="0" gradientUnits="userSpaceOnUse" gradientTransform="matrix(1.02938,-269.284,537.072,0.516125,342.653,651.724)"><stop offset="0" style="stop-color:rgb(209,56,56);stop-opacity:1"/><stop offset="0.18" style="stop-color:rgb(248,66,66);stop-opacity:1"/><stop offset="0.5" style="stop-color:rgb(255,68,68);stop-opacity:1"/><stop offset="0.82" style="stop-color:rgb(255,85,85);stop-opacity:1"/><stop offset="0.91" style="stop-color:rgb(255,129,129);stop-opacity:1"/><stop offset="1" style="stop-color:rgb(255,179,179);stop-opacity:1"/></linearGradient>
        <linearGradient id="_Linear27" x1="0" y1="0" x2="1" y2="0" gradientUnits="userSpaceOnUse" gradientTransform="matrix(-1.02938,269.284,-537.072,-0.516125,544.615,247.798)"><stop offset="0" style="stop-color:rgb(209,56,56);stop-opacity:1"/><stop offset="0.18" style="stop-color:rgb(248,66,66);stop-opacity:1"/><stop offset="0.5" style="stop-color:rgb(255,68,68);stop-opacity:1"/><stop offset="0.82" style="stop-color:rgb(255,85,85);stop-opacity:1"/><stop offset="0.91" style="stop-color:rgb(255,129,129);stop-opacity:1"/><stop offset="1" style="stop-color:rgb(255,179,179);stop-opacity:1"/></linearGradient>
        <linearGradient id="_Linear28" x1="0" y1="0" x2="1" y2="0" gradientUnits="userSpaceOnUse" gradientTransform="matrix(-1.02938,269.284,-537.072,-0.516125,277.39,247.798)"><stop offset="0" style="stop-color:rgb(209,56,56);stop-opacity:1"/><stop offset="0.18" style="stop-color:rgb(248,66,66);stop-opacity:1"/><stop offset="0.5" style="stop-color:rgb(255,68,68);stop-opacity:1"/><stop offset="0.82" style="stop-color:rgb(255,85,85);stop-opacity:1"/><stop offset="0.91" style="stop-color:rgb(255,129,129);stop-opacity:1"/><stop offset="1" style="stop-color:rgb(255,179,179);stop-opacity:1"/></linearGradient>
        <linearGradient id="_Linear29" x1="0" y1="0" x2="1" y2="0" gradientUnits="userSpaceOnUse" gradientTransform="matrix(-1.02938,269.284,-537.072,-0.516125,746.578,382.44)"><stop offset="0" style="stop-color:rgb(209,56,56);stop-opacity:1"/><stop offset="0.18" style="stop-color:rgb(248,66,66);stop-opacity:1"/><stop offset="0.5" style="stop-color:rgb(255,68,68);stop-opacity:1"/><stop offset="0.82" style="stop-color:rgb(255,85,85);stop-opacity:1"/><stop offset="0.91" style="stop-color:rgb(255,129,129);stop-opacity:1"/><stop offset="1" style="stop-color:rgb(255,179,179);stop-opacity:1"/></linearGradient>
        <linearGradient id="_Linear30" x1="0" y1="0" x2="1" y2="0" gradientUnits="userSpaceOnUse" gradientTransform="matrix(-1.02938,269.284,-537.072,-0.516125,813.899,247.798)"><stop offset="0" style="stop-color:rgb(209,56,56);stop-opacity:1"/><stop offset="0.18" style="stop-color:rgb(248,66,66);stop-opacity:1"/><stop offset="0.5" style="stop-color:rgb(255,68,68);stop-opacity:1"/><stop offset="0.82" style="stop-color:rgb(255,85,85);stop-opacity:1"/><stop offset="0.91" style="stop-color:rgb(255,129,129);stop-opacity:1"/><stop offset="1" style="stop-color:rgb(255,179,179);stop-opacity:1"/></linearGradient>
        <linearGradient id="_Linear31" x1="0" y1="0" x2="1" y2="0" gradientUnits="userSpaceOnUse" gradientTransform="matrix(-1.02938,269.284,-537.072,-0.516125,477.294,382.44)"><stop offset="0" style="stop-color:rgb(209,56,56);stop-opacity:1"/><stop offset="0.18" style="stop-color:rgb(248,66,66);stop-opacity:1"/><stop offset="0.5" style="stop-color:rgb(255,68,68);stop-opacity:1"/><stop offset="0.82" style="stop-color:rgb(255,85,85);stop-opacity:1"/><stop offset="0.91" style="stop-color:rgb(255,129,129);stop-opacity:1"/><stop offset="1" style="stop-color:rgb(255,179,179);stop-opacity:1"/></linearGradient>
    </defs>
</svg>
